<svg version="1.2" xmlns="http://www.w3.org/2000/svg" viewBox="0 0 677 766" width="677" height="766">
	<title>Inti Store</title>
	<defs>
		<linearGradient id="g1" x2="1" gradientUnits="userSpaceOnUse" gradientTransform="matrix(0,-141.658,557.04,0,411.52,128.659)">
			<stop offset="0" stop-color="#262422"/>
			<stop offset="1" stop-color="#646464"/>
		</linearGradient>
		<linearGradient id="g2" x2="1" gradientUnits="userSpaceOnUse" gradientTransform="matrix(13.6,13.6,-6.522,6.522,97.506,168.7)">
			<stop offset="0" stop-color="#f83515"/>
			<stop offset="1" stop-color="#fb5b0f"/>
		</linearGradient>
		<linearGradient id="g3" x2="1" gradientUnits="userSpaceOnUse" gradientTransform="matrix(0,-52.54,42.872,0,176.033,260.77)">
			<stop offset="0" stop-color="#ef5100"/>
			<stop offset="1" stop-color="#f4750a"/>
		</linearGradient>
		<linearGradient id="g4" x2="1" gradientUnits="userSpaceOnUse" gradientTransform="matrix(0,-39.006,30.708,0,305.294,464.515)">
			<stop offset="0" stop-color="#fd1a14"/>
			<stop offset="1" stop-color="#ff7e06"/>
		</linearGradient>
		<radialGradient id="g5" cx="0" cy="0" r="1" gradientUnits="userSpaceOnUse" gradientTransform="matrix(-28.105,-24.431,24.431,-28.105,555.23,169.228)">
			<stop offset="0" stop-color="#434c4c"/>
			<stop offset="1" stop-color="#11e3e4"/>
		</radialGradient>
		<linearGradient id="g6" x2="1" gradientUnits="userSpaceOnUse" gradientTransform="matrix(-14.118,43.45,-70.355,-22.86,492.299,440.365)">
			<stop offset="0" stop-color="#09eee9"/>
			<stop offset=".44" stop-color="#00b0b0"/>
			<stop offset="1" stop-color="#00b0b0"/>
		</linearGradient>
		<linearGradient id="g7" x2="1" gradientUnits="userSpaceOnUse" gradientTransform="matrix(0,21.316,-29.15,0,451.74,459.424)">
			<stop offset="0" stop-color="#f1ab00"/>
			<stop offset=".92" stop-color="#de5e00"/>
			<stop offset="1" stop-color="#de5e00"/>
		</linearGradient>
		<linearGradient id="g8" x2="1" gradientUnits="userSpaceOnUse" gradientTransform="matrix(0,-72.966,20.218,0,644.661,443.182)">
			<stop offset="0" stop-color="#e66f07"/>
			<stop offset="1" stop-color="#fbbd08"/>
		</linearGradient>
		<linearGradient id="g9" x2="1" gradientUnits="userSpaceOnUse" gradientTransform="matrix(20.054,-103.17,89.831,17.461,109.032,308.855)">
			<stop offset="0" stop-color="#420d55"/>
			<stop offset="1" stop-color="#6a2379"/>
		</linearGradient>
		<linearGradient id="g10" x2="1" gradientUnits="userSpaceOnUse" gradientTransform="matrix(51,-34.4,53.753,79.691,-16.62,331)">
			<stop offset="0" stop-color="#000000"/>
			<stop offset="1" stop-color="#c40d11"/>
		</linearGradient>
		<linearGradient id="g11" x2="1" gradientUnits="userSpaceOnUse" gradientTransform="matrix(0,114,-39,0,345.5,155.8)">
			<stop offset="0" stop-color="#fdbe17"/>
			<stop offset="1" stop-color="#f66f13"/>
		</linearGradient>
		<linearGradient id="g12" x2="1" gradientUnits="userSpaceOnUse" gradientTransform="matrix(0,119.451,-134.491,0,346.952,158.496)">
			<stop offset="0" stop-color="#f92e27"/>
			<stop offset="1" stop-color="#000000"/>
		</linearGradient>
		<linearGradient id="g13" x2="1" gradientUnits="userSpaceOnUse" gradientTransform="matrix(54,0,0,46.068,356,460.034)">
			<stop offset="0" stop-color="#29eff0"/>
			<stop offset="1" stop-color="#ffffff"/>
		</linearGradient>
	</defs>
	<style>
		.s0 { fill: url(#g1) } 
		.s1 { fill: #58c7c0 } 
		.s2 { fill: #89bbb8 } 
		.s3 { fill: #b1b3ae } 
		.s4 { fill: #96c1c8 } 
		.s5 { fill: #457d7c } 
		.s6 { fill: #a6e3e8 } 
		.s7 { fill: #6ec1c5 } 
		.s8 { fill: #85d9d7 } 
		.s9 { fill: #f8f8f8 } 
		.s10 { fill: #79dad3 } 
		.s11 { fill: #f74625 } 
		.s12 { fill: #f7f7f7 } 
		.s13 { fill: #f3c106 } 
		.s14 { fill: #e14229 } 
		.s15 { fill: url(#g2) } 
		.s16 { fill: #fb2614 } 
		.s17 { fill: #fcaf09 } 
		.s18 { fill: #f16f0f } 
		.s19 { fill: #faac02 } 
		.s20 { fill: url(#g3) } 
		.s21 { fill: #ef1815 } 
		.s22 { fill: #fb9e25 } 
		.s23 { fill: #ff5837 } 
		.s24 { fill: #fcbb09 } 
		.s25 { fill: #fcbd10 } 
		.s26 { fill: #f68f18 } 
		.s27 { fill: #f94125 } 
		.s28 { fill: #f9bb08 } 
		.s29 { fill: #ff2812 } 
		.s30 { fill: #f77400 } 
		.s31 { fill: #f4a817 } 
		.s32 { fill: #ef6400 } 
		.s33 { fill: #fdb201 } 
		.s34 { fill: #f01f1a } 
		.s35 { fill: url(#g4) } 
		.s36 { fill: #ff0000 } 
		.s37 { fill: #feb207 } 
		.s38 { fill: #fd1a14 } 
		.s39 { fill: #f6b503 } 
		.s40 { fill: #fdbe17 } 
		.s41 { fill: #f07801 } 
		.s42 { fill: #f72f0e } 
		.s43 { fill: #12e4e3 } 
		.s44 { fill: #ffffff } 
		.s45 { fill: url(#g5) } 
		.s46 { fill: none;stroke: #ffffff;stroke-miterlimit:100;stroke-width: 4 } 
		.s47 { fill: url(#g6) } 
		.s48 { fill: url(#g7) } 
		.s49 { fill: #fcb100 } 
		.s50 { fill: #64a523 } 
		.s51 { fill: #f99710 } 
		.s52 { fill: #f87800 } 
		.s53 { fill: #d97215 } 
		.s54 { fill: #00dad6 } 
		.s55 { fill: #fca70c } 
		.s56 { fill: url(#g8) } 
		.s57 { fill: #45abb9 } 
		.s58 { fill: #f13d1a } 
		.s59 { fill: #fa2b1b } 
		.s60 { fill: #fe940a } 
		.s61 { fill: none;stroke: #000000;stroke-linecap: round;stroke-miterlimit:100;stroke-width: 10 } 
		.s62 { fill: url(#g9) } 
		.s63 { fill: #dddee0 } 
		.s64 { fill: #f8e9ec } 
		.s65 { fill: #01a4a1 } 
		.s66 { fill: #f39905 } 
		.s67 { fill: url(#g10) } 
		.s68 { fill: #000000 } 
		.s69 { fill: #1dcceb } 
		.s70 { fill: none;stroke: #000000;stroke-linecap: round;stroke-miterlimit:100;stroke-width: 22 } 
		.s71 { fill: url(#g11) } 
		.s72 { fill: #f35226 } 
		.s73 { fill: #f8f8f8;stroke: #ffffff;stroke-linecap: round;stroke-miterlimit:100;stroke-width: 8 } 
		.s74 { fill: #020202 } 
		.s75 { fill: url(#g12) } 
		.s76 { fill: #f47d09 } 
		.s77 { fill: #dc0d1d } 
		.s78 { fill: #ffa100 } 
		.s79 { fill: #d6dfda } 
		.s80 { fill: #000000;stroke: #000000;stroke-linecap: round;stroke-miterlimit:100;stroke-width: 4.4 } 
		.s81 { fill: #045123 } 
		.s82 { fill: #047f2f } 
		.s83 { fill: #149136 } 
		.s84 { fill: #c3dd93 } 
		.s85 { fill: #a0bd2d } 
		.s86 { fill: #e8eea6 } 
		.s87 { fill: #67a71f } 
		.s88 { fill: #eef4f4 } 
		.s89 { fill: #bbe06c } 
		.s90 { fill: #98b92e } 
		.s91 { fill: #f0f7b4 } 
		.s92 { fill: #469923 } 
		.s93 { fill: #a5ba31 } 
		.s94 { fill: #f6f6f6 } 
		.s95 { fill: #dbe163 } 
		.s96 { fill: #749916 } 
		.s97 { fill: #679317 } 
		.s98 { fill: none;stroke: #000000;stroke-miterlimit:100;stroke-width: 10 } 
		.s99 { fill: #e7edeb } 
		.s100 { fill: #752389 } 
		.s101 { fill: #01b3b5 } 
		.s102 { fill: none;stroke: #dee5f5;stroke-linecap: round;stroke-miterlimit:100;stroke-width: 4 } 
		.s103 { fill: none;stroke: #dee5f5;stroke-linecap: round;stroke-miterlimit:100;stroke-width: 10 } 
		.s104 { fill: none;stroke: #ede2de;stroke-linecap: round;stroke-miterlimit:100;stroke-width: 10 } 
		.s105 { fill: #f38f03 } 
		.s106 { fill: #df0064 } 
		.s107 { fill: #d60058 } 
		.s108 { fill: #03bcc1 } 
		.s109 { fill: #f01126 } 
		.s110 { fill: #02ccce } 
		.s111 { fill: none;stroke: #000000;stroke-miterlimit:100;stroke-width: 12 } 
		.s112 { fill: none;stroke: #da0176;stroke-miterlimit:100;stroke-width: 14 } 
		.s113 { fill: none;stroke: #fa2419;stroke-miterlimit:100;stroke-width: 12 } 
		.s114 { fill: none;stroke: #f9ae03;stroke-miterlimit:100;stroke-width: 18 } 
		.s115 { fill: none;stroke: #7e1d90;stroke-miterlimit:100;stroke-width: 12 } 
		.s116 { fill: #c5bfb3 } 
		.s117 { fill: #bbb7ac } 
		.s118 { fill: #00dbda } 
		.s119 { fill: #c2b8ac } 
		.s120 { fill: none;stroke: #000000;stroke-linecap: round;stroke-miterlimit:100;stroke-width: 8 } 
		.s121 { fill: #ff780f } 
		.s122 { fill: #e61153 } 
		.s123 { fill: #f97105 } 
		.s124 { fill: url(#g13);stroke: #000000;stroke-linecap: round;stroke-miterlimit:100 } 
		.s125 { fill: #f6f6f6;stroke: #000000;stroke-linecap: round;stroke-miterlimit:100 } 
		.s126 { fill: #29eff0 } 
		.s127 { fill: #601d7e } 
		.s128 { fill: none;stroke: #000000;stroke-linecap: round;stroke-linejoin: round;stroke-width: 8 } 
		.s129 { fill: none;stroke: #000000;stroke-linejoin: round;stroke-width: 12 } 
		.s130 { fill: none;stroke: #000000;stroke-linecap: round;stroke-linejoin: round;stroke-width: 10 } 
		.s131 { fill: #fc2d1d } 
		.s132 { fill: #feb204 } 
		.s133 { fill: #fbaa01 } 
	</style>
	<path id="Forma 177" class="s0" d="m133 95c0 0 48.6 2.4 74 18 0 0 137.7-117.7 290 6 0 0 33-8.6 58-11 0 0-106.7-109.7-198-95 0 0-145.5 0.4-224 82z"/>
	<path id="Forma 189" class="s1" d="m512 89c0 0 2.2 3.4 4.6 2.8 0 0 1.4 1.2-0.6 3.2 0 0-5 1.7-3 4 0 0 5.7 3.8 11-6 0 0-0.5-9.4-5-8 0 0-7.1-0.8-7 4z"/>
	<path id="Forma 188" class="s2" d="m520 99c0 0-1.5 5.1-3 5 0 0 0.6 0.9 2 1 0 0 3.1-1 3.4-4 0 0 0-4.9-2.4-2z"/>
	<path id="Forma 187" class="s3" d="m525 95c0 0-2.9-0.5 0 5 0 0-2.3 5.4 1 5l1-2c0 0 2.6-0.4 2-4 0 0-1.3-4.6-4-4z"/>
	<path id="Forma 186" class="s4" d="m452 52c0 0 3.9 3.2-1 7 0 0-3.2 1-3-4 0 0 0.4-3.6 4-3z"/>
	<path id="Forma 185" class="s5" d="m443 50c0 0-9 3.1-7 6 0 0 3.9 1.2 6-1 0 0 4.8-2.9 1-5z"/>
	<path id="Forma 184" class="s6" d="m444 45c0 0-8.6 2.9 0 4 0 0 2.4 1-2 8 0 0-1 4.1 1 4 0 0 6.2-3.3 6-10 0 0 0.7-5.3-5-6z"/>
	<path id="Forma 183" class="s7" d="m350 27c0 0-9 2.7 1 15 0 0 2.5 0.9 2.4-7.9 0 0 0.1-5.5-3.4-7.1z"/>
	<path id="Forma 182" class="s8" d="m359 29c0 0-8.2 0.7-3 9 0 0 9.4-2.1 3-9z"/>
	<path id="Forma 181" class="s9" d="m265 46c0 0-1.3 7-6 7 0 0 6 3 6 8 0 0 2.4-8 7-8 0 0-6.8-2.3-7-7z"/>
	<path id="Forma 180" class="s10" d="m186 85c0 0-0.9 4.1 4.5 6.9 0 0 0.7-7.8-4.5-6.9z"/>
	<path id="Forma 179" class="s10" d="m181 87c0 0-5.5 0.3-1 6 0 0 3.9 0.7 5-1 0 0 0-4.5-4-5z"/>
	<path id="Forma 178" class="s10" d="m193 84l-4-2c0 0-3.4 3.6-7-2 0 0 2.9-6.6 9-1 0 0 1.9 0.7 2 5z"/>
	<path id="Forma 171" class="s11" d="m606 172l-11-16c0 0-58 17-46.6 83.8l16.6-10.8c0 0-7.4-43.9 41-57z"/>
	<path id="Forma 172" class="s12" d="m601.7 157.7c0 0-12.1-1.8-31.7 12.3"/>
	<path id="Forma 170" class="s13" d="m594 215c0 0-20.5 4.1-21 8 0 0-12.7-30.2 35-44 0 0 8.1 6 6 9 0 0-20.9 2.7-20 27z"/>
	<path id="Forma 169" class="s14" d="m483 200c0 0 1.9 49.3-2 58l9 6 2-3c0 0-4.5-9.2-5-18l1-23c0 0 2.2-9.9 13-21z"/>
	<path id="Forma 165" class="s15" d="m132 99c0 0-16.3 14.1-14 18 0 0 9.9 43.8 91 67 0 0-7.6-20.6 5-39 0 0-44.7-47.2-82-46z"/>
	<path id="Forma 164" class="s16" d="m206 186c0 0-11.2-35.9 16-51l8 11z"/>
	<path id="Forma 163" class="s17" d="m139 101c0 0 50.8 10.4 57 45.7l32 0.3c0 0-12.8-48.2-89-46z"/>
	<path id="Forma 162" class="s18" d="m170 182c0 0-49.7 22.7-7 84 0 0-41.2 4-33-54 0 0 0.1-28.4 40-30z"/>
	<path id="Forma 161" class="s19" d="m173 181c0 0-41.5 14.1-25.9 54.1 0 0 6.9-28.3 38.9-24.1 0 0 13.5-4.4 19-10v-11c0 0-25.1-11.2-32-9z"/>
	<path id="Forma 159" class="s20" d="m205 199c0 0-10 8.2-32 9 0 0-50.9 12.5-10.1 59.1l25.1 2.9 14-16z"/>
	<path id="Forma 158" class="s21" d="m203 211.6c0 0-44.4 11.8-15.8 58.2l16.8-17.8z"/>
	<path id="Forma 157" class="s22" d="m392 93l-44-9c0 0 27.2-60.7 42-62l30 9c0 0-31.8 16.5-28 62z"/>
	<path id="Forma 156" class="s23" d="m392 94c0 0-11.1-46.2 29-64 0 0 19.3 31.5-15 68z"/>
	<path id="Forma 155" class="s24" d="m203 48c0 0-18.8 63.8 32 89 0 0 46.5-55 109-51l4-20c0 0-8.2-32-27-47l-29 3c0 0-23.5 28.7-7 69 0 0-18.6-28-66-49z"/>
	<path id="Forma 154" class="s25" d="m489 55l-77 44 44 41c0 0 58.3-25.4 45-75z"/>
	<path id="Forma 153" class="s26" d="m458 145l12 22c0 0 30.8 7.1 57-17 0 0 33-2.9 43-12l7-9-19-16c0 0-51-9.8-100 32z"/>
	<path id="Forma 152" class="s27" d="m573.4 134c0 0-22.5 10.3-26.4 10 0 0-24.4-1.3-37 13 0 0-19.7 15.8-41 5l13 35c0 0 53.6-7.2 91.4-63z"/>
	<path id="Forma 151" class="s28" d="m480.4 263.6l-6.4 16.4 25 5v-6z"/>
	<path id="Forma 150" class="s29" d="m474.4 277.7c0 0 7.2 3.2 23.6 3.3l-17 20-6.8 29-17.2-15c0 0 7.7-12.7 17.4-37.3z"/>
	<path id="Forma 145" class="s30" d="m198 263l32 45-38 39h-5c0 0-25.7-14.3-35-17 0 0 6.1-35.9 46-67z"/>
	<path id="Forma 144" class="s31" d="m199 264c0 0-6.4 32-39 54z"/>
	<path id="Forma 143" class="s32" d="m197 264c0 0 9.7 32 27 38 17.3 6 2 0 2 0l-20.1-43.8z"/>
	<path id="Forma 142" class="s33" d="m229 312l-38 41c0 0 19.7 13.9 13 87 0 0 6.4 12.8 15-8l-1-40c0 0 14.6-43.7 49-15l10-13c0 0-45.5-21.7-48-52z"/>
	<path id="Forma 141" class="s34" d="m276.7 366.9c0 0-47.4-24.1-50.7-51.9l4-2c0 0 31.1 32.7 52 40z"/>
	<path id="Forma 140" class="s35" d="m288 367c0 0 37.4 64.7-13.4 80.3l5 10.4c0 0 39.2-18.3 51.4-35.7 0 0-0.2-26 15-36v-3c0 0-37.4 1.4-58-16z"/>
	<path id="Forma 139" class="s36" d="m346 383c0 0-16.3 9.5-19 43l23-22z"/>
	<path id="Forma 138" class="s37" d="m285 361c0 0 47 61.1-5.7 87.1 0 0 14-40.1-7.3-68.1z"/>
	<path id="Forma 137" class="s38" d="m346 383c0 0-40.7 5.5-62-19l4-10c0 0 35.4 16.1 56 14z"/>
	<path id="Forma 136" class="s39" d="m349 365l3 34 20 17 8-38c0 0 94.8 59.4 112 53l2-61c0 0-23.8-28.3-17-34l-26-19c0 0-49.4 51.2-102 48z"/>
	<path id="Forma 134" class="s40" d="m345.5 363.6c-76 0-137.5-61.6-137.5-137.8 0-76.2 61.5-137.8 137.5-137.8 76 0 137.5 61.6 137.5 137.8 0 76.2-61.5 137.8-137.5 137.8z"/>
	<path id="Forma 148" class="s41" d="m482.3 251.5c0 0-11.8-6.9-23.3-14.5 0 0-12.3 96.8-118 98 0 0-110.5-7.7-107-120 0 0-0.1-9.8-3-16 0 0-4.4-16.7 1.5-45.3 0 0-13.5 10-22.5 46.3 0 0-12.7 82.5 35 119 0 0 39.3 52.6 119 42 0 0 102.2-5.5 118.3-109.5z"/>
	<path id="Forma 131" class="s42" d="m316 241c0 0 6.8 19.5 30 21 0 0 25 0.2 32-21z"/>
	<g id="Detalles">
		<g id="Detalles Color">
			<path id="Forma 174" class="s43" d="m548 253l38 1 6-30c0 0-31.9 0-44 29z"/>
			<path id="Forma 176" class="s44" d="m569 233c0 0 1 7.6 8 8 0 0-14 4.7-15.7-2.6z"/>
			<path id="Forma 175" class="s44" d="m588 239c0 0-19.3-4.7-20-6l22.1-9.6z"/>
			<path id="Forma 173" class="s45" d="m578 133c0 0-15.5 35.9-60 59 0 0 12.9-5.2 22.4 31.6 0 0 3-57.5 50.6-73.6z"/>
			<path id="Forma 128" class="s46" d="m193 110c0 0-59.5-9.1-63-8 0 0-5.7 9.1-10 15"/>
			<path id="Forma 128" class="s46" d="m211 181c-0.2 0.4-60.3-13.8-89-59"/>
			<path id="Forma 128" class="s46" d="m207 48c0 0-5.4 36.2-3 44"/>
			<path id="Forma 128" class="s46" d="m216.3 44.6c0.4-0.5 37.9 29.4 50.7 29.4"/>
			<path id="Forma 128" class="s46" d="m298 22c0 0-17.1 24.2-17 52"/>
			<path id="Forma 128" class="s46" d="m388.1 25.1c0 0-37.2 46.8-35.1 59.9"/>
			<path id="Forma 128" class="s46" d="m487.7 58c-1-1.2-48.3 18-75.7 43"/>
			<path id="Forma 128" class="s46" d="m562.6 116.9c0 0-62.7-8.2-99.6 34.1"/>
			<path id="Forma 130" class="s47" d="m422 406v33c0 0 22.3 11.2 67 46l1-52c0 0-24.3 0.6-68-27z"/>
			<path id="Forma 129" class="s48" d="m421.1 443.3l-0.1 37.7 53 1.1z"/>
			<path id="Relleno de color sólido 33" class="s49" d="m490 544l-264-2c0 0 26-57.4 33.7-56.8 0 0 13.6-13.6 12.3-24.2 0 0 11.3 6 34-12 0 0 85.8 45 174 34l11 13z"/>
			<path id="Relleno de color sólido 34" class="s50" d="m454 541c0 0 8.5-27.6 35-13v14z"/>
			<path id="Relleno de color sólido 32" class="s51" d="m90 379l-20 9c0 0 13.1 14.8 13 28l5.9 10.2z"/>
			<path id="Relleno de color sólido 31" class="s52" d="m208.7 504.5l1.7 37.8c0 0 12.7 1.9 30.3-40.4 0 0-16.2 1.5-32 2.6z"/>
			<path id="Relleno de color sólido 30" class="s53" d="m88.5 506.5l-17.8-0.2c-0.8-0.1 16.3 29.7 17.5 29.7z"/>
			<path id="Forma 135" class="s54" d="m352 402l-41 45c0 0 26.6-10.1 41-6 0 0 18.3-20.1 16-26z"/>
			<path id="Forma 149" class="s55" d="m64 502l-16-2 25 43 11-1z"/>
			<path id="Forma 147" class="s56" d="m631 363l27.3-5.6c0 0-7.7 91.5-15.3 98.6l-11-1z"/>
			<path id="Forma 146" class="s57" d="m630 447c0 0 13 7.6 18 7l-9 28-8 1z"/>
			<path id="Forma 168" class="s58" d="m646 277c0 0-12.3 24.1-16 24 0 0 15.6 1.9 18-1z"/>
			<path id="Forma 167" class="s59" d="m632 329c0 0 13.7 0.2 24-6l2 21-10 13h-15z"/>
			<path id="Forma 166" class="s60" d="m632 307v23c0 0 23.9-1.8 25-9l-3-16z"/>
		</g>
		<g id="Detalles Formas">
			<path id="Forma 99" class="s61" d="m630 419c0 0 26.2 0 31-4m-242 68l63 1m-1 1c0 0-39.3 57.2-49 59m-14-74c0 0 6.6 63.5 14 73m42-68c0 0 16.6 14.1 20.1 24m-75.1-61c0 0 64.4 44.2 75 51m-73-86c0 0 52.9 31.1 71 28m-143.6-36.2c0 0 18.1 20.7 22.6 18.2m-166.4 34.7c0 0 15.7-12.7 13.4-29.7m-126 26l-12.8-29.2m195.8 82.2l-14-13m-9.4 5.1c0 0-21.9 46.7-32.6 55.9m-155-44c0 0 22.1 42.7 26 43m454-300c0 0-7.2-79.6 55-92m-31 75c0 0-7.3-45.7 42-51m-15 43c0 0-37 7.6-50 31.4"/>
			<path id="Forma 80" class="s62" d="m93 136c0 0-71.2 109.3-44 139l41 31 35-27c0 0 4.7-7.2 25 38 0 0 30.2-43.4 36.7-44 0 0-73.8 1.9-60.7-50 0 0-3.3-19.8 19-38z"/>
			<path id="Forma 83" class="s63" d="m84 234c0 0-21.2-20.9-26-14l2-9c0 0 8.6 1.3 10-1 0 0 1.7-5.4-9-4l5.6-15.9 17.4-0.1v-5c0 0-8.9 0.4 6-16l12 10v8c0 0 10.2-2 8-5 0 0-4.1 2.7-5 0 0 0-1.4-3.3 9-12 0 0 2 0.5 3.8 14.6h16.1c0 0-3.7 12.9-18.9 15.4 0 0 6.3 19.6 11 22l-2 6c0 0-25.4-18.2-28-25 0 0-3.2 2.2-8 2 0 0-2.5 26.9-4 29z"/>
			<path id="Forma 82" class="s64" d="m113 239c0 0-5.3 1.5-5 4 0 0 1 5.6 5 5 0 0 4.1-0.6 4-6 0 0-1.6-2.7-4-3z"/>
			<path id="Forma 81" class="s64" d="m59 241c0 0 3.7 0.8 5 5l7-6c0 0-3.5-8.8-8-5 0 0-3 1.9-4 6z"/>
			<path id="Forma 79" class="s65" d="m104 263v-10c0 0-42.4-5.8-54 11l0.1 9.3c0 0 24.3-20.1 53.9-10.3z"/>
			<path id="Forma 78" class="s66" d="m15 360l4 43c0 0 33.8-24.3 69.9-27.6l-19.9-18.4z"/>
			<path id="Forma 77" class="s67" d="m66 356l-51 1c0 0 5.3-76.5 13-80 0 0 23.9 64.7 38 79z"/>
			<path id="Relleno de color sólido 6" class="s68" d="m46 328c0 0-24.4-58.1-24-81 0 0 27.3-105.8 89-143 0 0 1.6 33.1 60 72 0 0-29.7 3.2-33.2 16.3 0 0-21.7-35.8-47.6-49.4 0 0-51.1 101.9-36.2 132.1 0 0-18 12.3-8 53z"/>
			<path id="Forma 76" class="s69" d="m135 169c-3.3 0-6-2.7-6-6 0-3.3 2.7-6 6-6 3.3 0 6 2.7 6 6 0 3.3-2.7 6-6 6z"/>
			<path id="Forma 75" class="s69" d="m118.5 149c-3.6 0-6.5-2.9-6.5-6.5 0-3.6 2.9-6.5 6.5-6.5 3.6 0 6.5 2.9 6.5 6.5 0 3.6-2.9 6.5-6.5 6.5z"/>
			<path id="Forma 74" class="s70" d="m338.5 703.2c-181.1 0-327.5-154.7-327.5-346.1 0-191.4 146.4-346.1 327.5-346.1 181.1 0 327.5 154.7 327.5 346.1 0 191.4-146.4 346.1-327.5 346.1z"/>
		</g>
	</g>
	<g id="Sol">
		<g id="Sol Color">
			<path id="Forma 133" class="s71" d="m326 133c0 0 6 92.9 8 99 0 0-1 13.3 13 15 0 0 16.3-4.1 14-14l4-99z"/>
			<path id="Relleno de color sólido 29" class="s9" d="m335.3 151.6c0.1 0.1 11.2 11.8 9.7 30.4v56c0 0 1.1 2.5 4 4 0 0 2-0.3 3.6-3.9l0.4-55.1c0 0-1.3-26.5 6.6-31.2 4.7-2.7-24.3-0.2-24.3-0.2z"/>
			<path id="Forma 119" class="s9" d="m347.5 156c-13.5 0-24.5-14.3-24.5-32 0-17.7 11-32 24.5-32 13.5 0 24.5 14.3 24.5 32 0 17.7-11 32-24.5 32z"/>
			<path id="Forma 120" class="s72" d="m347.5 141c-6.4 0-11.5-7.2-11.5-16 0-8.8 5.1-16 11.5-16 6.4 0 11.5 7.2 11.5 16 0 8.8-5.1 16-11.5 16z"/>
			<path id="Relleno de color sólido 28" class="s9" d="m380 123.2c0 0-1-5.6 8.5-2.7l15.5 2.5c0 0 5.7 1.5 6 4 0 0-0.2 2.8-13 2 0 0-19.5 1.5-17-5.8z"/>
			<path id="Relleno de color sólido 27" class="s9" d="m288 123m27 1c0 0 2.6 6-10.1 5.6l-19.4 0.8c0 0-1.6-4.8 0.5-6.4l18.4-2.1c0 0 11.8-2.5 10.6 2.1z"/>
			<path id="Relleno de color sólido 26" class="s9" d="m269 149c0 0-0.5-4.4 8-3 0 0 46.4-1.9 51.6 28.6 0 0-19.2-24.1-54.6-21.6 0 0-5.2 0.8-5-4z"/>
			<path id="Relleno de color sólido 25" class="s9" d="m419 145c0 0 4.6 0.1 5 3 0 0 1 3.8-5 4 0 0-24.7-4.8-55 23 0 0 7-31.6 55-30z"/>
			<path id="Relleno de color sólido 24" class="s9" d="m384 298c0 0 1.5 10.2-36 14 0 0-35.7 0.9-38-13 0 0 0.3-2.4 6.2 1 0 0 34.9 12.7 61.8-1 0 0 6.7-4.4 6-1z"/>
			<path id="Forma 118" class="s73" d="m429 240c0 0 14.2-1.5 16-7"/>
			<path id="Forma 117" class="s73" d="m248 234c0 0 7.9 7.6 18 5"/>
			<path id="Relleno de color sólido 23" class="s9" d="m454.5 200.2c0 0 8.2 2.1 5.5-5.2-2.7-7.3-50.5-50.5-85-3 0 0 3.9 6.4 7 6 0 0 27.1-42.6 72.5 2.2z"/>
			<path id="Relleno de color sólido 22" class="s9" d="m235 202c0 0-6.3 0.7 0.2-8.6 0 0 31.2-49.9 81.8-4.4 0 0 4.9 9.1-5 8 0 0-28.4-42.2-77 5z"/>
			<path id="Relleno de color sólido 21" class="s9" d="m380 216c0 0 33.9 27.2 73-3 0 0-8.5-13.8-22-21 0 0-43.9-15.6-51 24z"/>
			<path id="Forma 116" class="s9" d="m310 216c0 0-29 24.8-73-1 0 0 1.5-10.1 19-19 0 0 38.5-20.2 54 20z"/>
			<path id="Relleno de color sólido 20" class="s68" d="m415 187c0 0-22.7 5.5-14 19 0 0 10.1 16.3 20 8 0 0 8.2-8.1 7-15 0 0-2.2-13.1-13-12z"/>
			<path id="Relleno de color sólido 19" class="s74" d="m276 187c0 0-37.1 11.6 0 29 0 0 35.8-18.5 0-29z"/>
			<path id="Forma 132" class="s75" d="m282.2 135.6c-0.2 0-5.3 0.3-0.3 11 0 0 40 2.1 46.1 26.4l0.2 56.8c0 0-9.8 0.4-10.2 1.2 0 0-9.7 6 0 14 0 0 4.9 1.7 6 2 0 0 25.4 19.3 56-6 0 0 2.6-8.2-5-10 0 0-8.8-1.6-10-1v-57c0 0 9.9-28.2 49-27 0 0 0.4-3 0-11 0 0-49.7-7-55.7 38.1l-0.3 59.9c0 0 0.6 8-10 11 0 0-10-0.8-10-10v-61c0 0-11-44.7-55.8-37.4z"/>
		</g>
		<g id="Sol Forma">
			<path id="Forma 72" class="s76" d="m50 282c0 0-11.1 32.7 8 52 0 0 14.3-23.2 28-28z"/>
			<path id="Forma 73" class="s77" d="m51 281c0 0-19.1 42.7 5.6 53.4l19.6-22.8c0 0-17.2 0.7-17.5-1.5 0 0-7.2-8.8-7.7-29.1z"/>
			<path id="Forma 71" class="s78" d="m125 279c0 0 23.4 27.5 23 55 0 0-42.8-1-55.4 39.9l-34.6-34.9c0 0 17.8-29.2 34-30z"/>
			<path id="Forma 70" class="s79" d="m86 281c0 0 4.5 0.7 4 5 0 0 7.9-1.4 6-8 0 0-4.8-5.5-10 3z"/>
			<path id="Forma 68" class="s61" d="m90 376l-24.1 9.6"/>
			<path id="Forma 67" class="s61" d="m67.5 356.7c0 0-44.4 0.3-47.5 0.3"/>
			<path id="Forma 63" class="s61" d="m154 336c0 0-9.3-50-32-63 0 0-33.4-22.8-68 1 0 0-39.8 41.4 40 104 0 0 14.5-51.5 60-42z"/>
			<path id="Forma 65" class="s61" d="m140.3 263.4c0 0-48.1 41.7-47.3 44.6 0 0-11-5.2-35 29"/>
			<path id="Forma 65" class="s61" d="m51 279l41 29c0 0 36.4 13.1 40 27"/>
			<path id="Forma 66" class="s80" d="m99 359c0 0-15.5-19.1-3-24 0 0 15.4 4 3 24z"/>
			<path id="Forma 16" class="s61" d="m644 269c0 0 8.1 9.6 6 32 0 0-22.6 9.3-24 3 0 0 14.2-26.6 18-35zm-17 35l1 56 18-1c0 0 16.5-6.8 17-29 0 0 1.5-24.5-2-33 0 0-12.8 3.3-13 6 0 0-18 4.1-21 1zm-174 11c0 0 21.4 26 25 22 0 0 1.1-33.2 5-34 0 0 14.6-18.4 20-20 0 0-13.6-20.7-24-22 0 0-19.8 46.3-26 54zm-168 38c0 0-51.7-33.5-55.5-45.4 0 0-21.8 24.6-39.5 44.4 0 0 13.5 26.5 14 33 0 0 0 63.3 0 67 0 0 12.6-2.3 15-14 0 0-0.3-45.3 0-46 0 0 6.2-21.6 27-24 0 0 13.2 2.2 22 11 0 0 17.8-27.2 17-26zm173-208c0 0 35.8-30.2 58-31 0 0 44.1-7.6 56-3 0 0 28.5 8.1-30 61 0 0-13.9 13.3-39 22 0 0-19.4 6.1-24 3 0 0-15.6-42.7-21-52zm-48-44c0 0 0.5-14.2 45-36 0 0 28.5-11.9 36-16 0 0 10.7-0.9 12 5 0 0 1.8 51.6-9 59 0 0-24.2 27.9-41 29 0 0-34.2-33.1-43-41zm-64-16c0 0 7.5-33.9 43-69 0 0 14.8-7.2 26 2 0 0 33.2 45.2-10 81 0 0-48.3-11.2-59-14zm-58 13c0 0-26.5-39.7 7-83 0 0 15.7-5.8 24-3 0 0 38.6 43.9 26 74 0 0-43.6 5.7-57 12zm-52 40c0 0-49-27-35-88 0 0-1.1-5.7 19-10 0 0 30.4 18.8 42 28 0 0 19.8 12.1 21 32 0 0-42.5 31.7-47 38zm-5 7c0 0-19.6 42.6-23 42 0 0-74.9-16.9-92-72 0 0 7-16.2 17-17 0 0 76.4-6.8 98 47zm-26 107c0 0-15.8 17.7-18 20l-36-4c0 0-30.2-7.2-25-50 0 0 1-36.9 40-39 0 0 13.7-3.2 43 10 0 0-5.9 18.4-4 63zm0 0c0 0-44.6 49.7-64 85 0 0 17.4-8.6 48 16 0 0 37.4-43.7 40-45 0 0-15.6-33.3-24-56zm139 113l5 38c0 0-62.4 76.9-89 52 0 0-14.6-40.2 22-96 0 0 1.2-0.6 3-6 1.8-5.4 37.9 17.9 59 12zm69.8-146.5c-9.1 0-16.3-8.2-16.3-18.3 0.1-10.1 8.2-14.9 17.3-14.9 9.1 0 15.6 4.8 15.5 14.9-0.1 10.1-7.5 18.3-16.5 18.3zm-31.8-41.5c0 0 27.3-23.4 60-3m-65 44c0-3.2 21.3-66.7 75.7-13.6m-176.9 14.1c-9.1 0-16.3-8.2-16.3-18.3 0.1-10.1 7.6-16.3 16.7-16.3 9.1 0 16.2 6.2 16.1 16.3-0.1 10.1-7.5 18.3-16.5 18.3zm-27.8-44.5c0 0 25.6-21 59 2m7.4 37.6c1.4 0.1-18.8-59.5-75.6-10.5m50.1 56.1c0 0.1 54.3 67.8 116.9-1m-62.3 105.8c-76.5 0-138.3-61.8-138.3-138.3 0-76.4 61.8-138.2 138.3-138.2 76.5 0 138.2 61.8 138.2 138.2 0 76.5-61.7 138.3-138.2 138.3z"/>
		</g>
	</g>
	<g id="Cactus">
		<g id="Cactus Color">
			<path id="Forma 52" class="s81" d="m93.6 544.6l111.4-0.6-2-43c0 0 53 0.9 64-30 0 0 38.2-88-20-102 0 0-41.8-3.4-26 66 0 0-12.4 23.3-15 20 0 0-6.2-33.2-2-68 0 0-9-50.6-55-51 0 0-55.2-3.3-54 47l-2 73c0 0-12.4-8.6-15-23 0 0 5.1-50.7-26-47 0 0-56.9 6.5-28 79 0 0 25.7 48.8 68 39 0 0 1.3 38.9 1.6 40.6z"/>
			<path id="Forma 62" class="s82" d="m121 352c0 0-8.5-5.4-8 43l1 149 29 1-2-199c0 0-26.4 5-20 6z"/>
			<path id="Forma 61" class="s83" d="m258.6 373.1l0.4 70.9c0 0-3.3 21.2-31 35l-5-6-23.6 5.2v19.6c0 0 42.9 15 67.6-26.8 0 0 15.5-24.6 14-65 0 0-1.8-24.2-22.4-32.9z"/>
			<path id="Forma 60" class="s84" d="m262 380c0 0 4.1 13.4 13 21 0 0-3.1-20.4-13-21z"/>
			<path id="Forma 58" class="s85" d="m243.2 384.3c0 0 10.4 3.1 17.8-2.3v58c0 0 0.8 8.6-6 19 0 0-14.7 20.6-29 22 0 0-4.9-3.8-4-6l19.8-26.1z"/>
			<path id="Forma 59" class="s86" d="m255.8 385c0 0 3.7 0 5.2-2v39c0 0-6.2 57.7-57 57 0 0 42.4-5 52-57z"/>
			<path id="Forma 56" class="s87" d="m238.1 373.4c0 0-8.3-0.4-14.3 16.5-5.8 16.2 7.7 69.3-24.1 67.6l0.3 23.5c0 0 45.5-7.4 46-42l-1-55c0 0-0.3-10.6-6.9-10.6z"/>
			<path id="Forma 57" class="s88" d="m237 374c0 0 7.6 23.2 28 6 0 0-12.3-16.8-28-6z"/>
			<path id="Forma 55" class="s89" d="m117 540h-6v-159c0.8-5.7-3.7-25.6 9-26 0 0 3.1-0.8 0 5-3.1 5.8-3.2 17.9-3 21z"/>
			<path id="Forma 54" class="s90" d="m140 540l16.3 0.1-1.3-195.1-16.2-0.1z"/>
			<path id="Forma 53" class="s91" d="m160.7 541.2l-6-0.2 0.2-196.2 5.1 0.2z"/>
			<path id="Forma 51" class="s92" d="m160.1 346.7l0.4 194.8 24.5 0.5-2-159c0 0 1.2-11.5-22.9-36.3z"/>
			<path id="Forma 50" class="s93" d="m160 348c0 0 31.3 6.4 35 45v149h-12l-1-149c0 0 2.7-21.4-22-45z"/>
			<path id="Relleno de color sólido 5" class="s94" d="m104 360c0 0-0.5 6 8 4 0 0 3.3-6.9 12-11 0 0 7.8-5.9 26-6 0 0 9.2-0.3 25 13 0 0 11.4 9.8 15 22 0 0 1.5 5.2 2 12v146h8v-150c0 0-1.1-27.1-22-42 0 0-10.7-11.5-38-10 0 0-22.2 0.9-36 22z"/>
			<path id="Relleno de color sólido 4" class="s94" d="m94 465c0 0-15.3 3.2-22-20 0 0-3.1-1.7-3-26 0 0-2.5-9.2-10-18 0 0-9.9 6.8-16-5 0 0-2.4-5.4 8-5 0 0 16-2.4 22 19 0 0 0.7 1.8 1 4l1 26c0 0 3.3 11.2 8 15 4.7 3.8 10.7 6.3 11 10z"/>
			<path id="Relleno de color sólido 3" class="s95" d="m58 402c0 0-2.7-2-4 1 0 0-0.9 31.1 1 36 0 0 0.3 15.3 11 28 0 0 8.5 10.4 18 13 0 0 11.2 4.2 12-2 0 0-18-1.1-27-15 0 0-9.9-16.2-11-61z"/>
			<path id="Relleno de color sólido 1" class="s96" d="m41 396c0 0 9.4 7.9 13 6 3.6-1.9-13.2 79 41 78 0 0-4.1 11.2-36-7 0 0-22.7-11.5-18-77z"/>
			<path id="Relleno de color sólido 2" class="s97" d="m58 401c0 0 10.5 6.9 12 21 0 0-0.8 20.9 3 24 0 0 4.6 18.8 23 20v13c0 0-27.6-5.1-34-28 0 0-5-5.6-4-50z"/>
		</g>
		<g id="Cactur Forma">
			<path id="Forma 1" class="s98" d="m93.3 545.4l112.3 0.3c0 0-0.8-26.3-0.6-45.7 0 0 38.1 11.4 63-30 0 0 37.4-86.8-19-102 0 0-23.1-1.1-31 26 0 0 1.2 42.7 1 43-0.2 0.3-15 31.9-16 13 0 0 0.5-60.4 1-65 0 0-9.9-50.3-54-50 0 0-46.3-6.3-57 46l-1 76c0 0-16.3-11.4-13-45 0 0-5.4-26.4-24-27 0 0-28.6-3.4-38 36 0 0-5.9 87.1 76 82z"/>
		</g>
	</g>
	<g id="Llama">
		<g id="Llama Color">
			<path id="Relleno de color sólido 18" class="s12" d="m629 545l-133-1v-170c0 0-34.4-27.5-10-76l22-17c0 0-47.3-61.4 9-85 0 0 12.2-10.5 29 57l40 2c0 0 12.9-74.2 29-62 0 0 62.5 18 15 104z"/>
			<path id="Relleno de color sólido 17" class="s99" d="m619.7 300.7c0 0 30-53.2-3.8-99.4 0 0-7.3 65.3-16.9 66.7 0 0-16.8-6.6-64-2l-49 33-7 32 3 17 11 18 7 8-1 24 1 6 119.4-5.1z"/>
			<path id="Forma 109" class="s100" d="m47 547v185c0 0-10.2 30.7 68 28l478 2c0 0 40.2 4.7 37-45l-3-170z"/>
			<path id="Relleno de color sólido 16" class="s101" d="m50 684l-1.5 53.6 575.5-0.6 1-50z"/>
			<path id="Forma 115" class="s102" d="m56 553v16"/>
			<path id="Forma 114" class="s103" d="m74 553h537"/>
			<path id="Forma 113" class="s104" d="m541 742h81"/>
			<path id="Forma 112" class="s104" d="m477 741l50-1"/>
			<path id="Forma 111" class="s104" d="m173 740h66"/>
			<path id="Forma 110" class="s104" d="m54.8 741.5l102.2-0.5"/>
			<path id="Relleno de color sólido 15" class="s68" d="m518.9 737.4l29.1-27.4 25.9 23.3 28.1-24.3 23 20v8z"/>
			<path id="Relleno de color sólido 14" class="s68" d="m49.4 737.5l30.4-29 29.6 24.2 28.6-24.7 24.2 22.5 0.8 6.5z"/>
			<path id="Forma 108 copy" class="s105" d="m513.5 619.6v60.6l115.5-0.2-1-59-11-1-19 21-22-18-27 18-20-22z"/>
			<path id="Relleno de color sólido 13" class="s106" d="m531.5 647.5c0 0 7.3-8.7 23.5 12.5l13-14c0 0 15.3 17 9 1 0 0 4-6.3 20 13l15-15 12 13 1 22-92.7 0.9z"/>
			<path id="Forma 108" class="s105" d="m52 620l-2 60 113 1-1-59-11-1-19 21-22-18-27 18-20-22z"/>
			<path id="Relleno de color sólido 12" class="s107" d="m52 662l19-15 13 12 12-13c0 0 0 6.4 6 8 0 0 5.1-1.9 4.4-7.5 0 0 6.8-4 20.6 12.5l13-13c0 0-1 9.8 5 9 0 0 7.4-3.2-0.2-8 0 0 0.1-3.2 15.2 3l1 30h-111z"/>
			<path id="Forma 107" class="s98" d="m63.4 620l20.6 22 24-22 21 22 21.5-22"/>
			<path id="Forma 107 copy" class="s98" d="m533.4 620l20.6 22 24-22 21 22 21.5-22"/>
			<path id="Forma 105 copy" class="s68" d="m624 612v12h-572v-12zm0 0v12h-572v-12zm0 0v12h-572v-12z"/>
			<path id="Forma 105 copy 2" class="s68" d="m624 678v12h-572v-12zm0 0v12h-572v-12zm0 0v12h-572v-12z"/>
			<path id="Forma 105 copy 3" class="s68" d="m625 734v7h-573v-7zm0 0v7h-573v-7zm0 0v7h-573v-7z"/>
			<path id="Forma 105" class="s68" d="m624 584v9h-572v-9zm0 0v9h-572v-9zm0 0v9h-572v-9z"/>
			<path id="Forma 104 copy 2" class="s108" d="m623 593v19h-570v-19z"/>
			<path id="Forma 104" class="s109" d="m623 571v13h-572v-13z"/>
			<path id="Relleno de color sólido 11" class="s110" d="m619.3 540.6v-33.3l-12.3-14.3-16.6 15.7-14.2-16.7-15.2 16-15-16-16 16-16-16-16 18v30z"/>
			<path id="Forma 103 copy 2" class="s111" d="m497 545h128"/>
			<path id="Forma 103" class="s98" d="m497 479h128"/>
			<path id="Forma 103 copy 3" class="s112" d="m497 467h128"/>
			<path id="Forma 103 copy" class="s98" d="m497 450h128"/>
			<path id="Forma 102" class="s113" d="m497 439h127"/>
			<path id="Forma 101" class="s114" d="m497.3 424h127.7"/>
			<path id="Forma 100" class="s115" d="m494 402h132"/>
			<path id="Relleno de color sólido 10" class="s116" d="m520 196c0 0-3.1 21.4 17 61l-31 23c0 0-43.6-70.3 14-84z"/>
			<path id="Relleno de color sólido 9" class="s117" d="m573 362c0 0 0.3 16.2-22 26 0 0-49 3.1-53-2l1-9c0 0 50.3 8.6 74-15z"/>
			<path id="Relleno de color sólido 8" class="s118" d="m552 310c0 0 3.2 18.4-1 24 0 0-31.3 19.5-38 3 0 0-11.8 13.5-32-1l1-20c0 0 26.5 2 29 10 0 0 28.7-17.8 41-16z"/>
			<path id="Relleno de color sólido 7" class="s119" d="m548.2 299.6c0 0-22-7-36.2 3.4 0 0-1.7-0.6-2-4 0 0-8.5-5.9-16-2l-7 6-1 8c0 0 14.4-0.6 24 11 0 0 14.9-13.6 37-15z"/>
		</g>
		<g id="Llama Forma">
			<path id="Forma 26" class="s120" d="m496 373c0 0 67.7 16.6 79-23"/>
			<path id="Forma 25" class="s120" d="m576 343c0 0-6.8 43.3-80 24"/>
			<path id="Forma 24" class="s98" d="m545 255c0 0-10.1-42.7-16-51 0 0-5.9-20.6-27-1 0 0-30.8 22.6 3 78 0 0 36-24.6 40-26z"/>
			<path id="Forma 23" class="s98" d="m622 252c0 0-3 18-13 27"/>
			<path id="Forma 22" class="s61" d="m624 227c0 0-1.1 32.3-5 36"/>
			<path id="Forma 21" class="s61" d="m510 232c0 0 7.1 36.5 13 35"/>
			<path id="Forma 20" class="s61" d="m548 302c0 0 3.7 9.6-6 9 0 0-33.8 6.5-30 20 0 0 3.7 31 35 1"/>
			<path id="Forma 19" class="s98" d="m481 313c0 0 36 1 29 24 0 0-7.6 18.7-30-1 0 0-4.3-12.6 1-23z"/>
			<path id="Forma 18" class="s68" d="m587 312c-7.7 0-14-6.3-14-14 0-7.7 6.3-14 14-14 7.7 0 14 6.3 14 14 0 7.7-6.3 14-14 14z"/>
			<path id="Forma 17" class="s111" d="m47.8 545.3l-0.8 183.7c0 0-0.2 32.4 39 32l505-1c0 0 38.7 5.5 38-35l-1-427c0 0 50.8-79.4-12-106 0 0-15.1 2.9-16 10 0 0-12 53.1-12 54 0 0.9-42.8-1.6-46 0 0 0-58.8 40.8-59 45 0 0-10.2 42.9-4 49 0 0 12.9 19.6 15 20l-1 175z"/>
		</g>
	</g>
	<g id="Paloma">
		<g id="Paloma Color">
			<path id="Forma 49" class="s121" d="m417 380v14l-31-14c0 0-1-6.4 4-8 5-1.6 8.4-2.1 15-1z"/>
			<path id="Forma 48" class="s122" d="m408.7 374.3c0 0-23.5-8.2-20.7 5.7l-8-6 4-12 10-3 9-2z"/>
			<path id="Forma 47" class="s123" d="m426 356.1l1.2 16.6c0 0 11.9-3.7 15-15z"/>
			<path id="Forma 44" class="s124" d="m406 483l4-6-47-40-7 7c0 0 20.3 10.8 24 26 0 0 23 14.2 26 13z"/>
			<path id="Forma 43" class="s125" d="m381 376c0 0 11.3-8.7 4 23l-6 27c0 0-2.8 4.3 0 7 0 0 8.9 2.1 8 4 0 0-7.6 7.7-8 9l-14-11c0 0 7.1-7.1 16-59z"/>
			<path id="Forma 42" class="s126" d="m295 504c0 0-11.6 15.6-6 31 0 0 11.1-3.2 16 5 0 0 77.2 11.2 101-49l-3-5-17-8-2 4c0 0 4.7 14.5-17 36 0 0-6.8 10-30 12 0 0-23-3.3-26-10 0 0-9-5.8-10-10-1-4.2-3-8-3-8z"/>
			<path id="Forma 37" class="s127" d="m310 473c0 0-4.7 0.1-6 19h-5c0 0 2.7 20.5 13 26 0 0 36.2 22.9 57-6 0 0 22-36 0-44v11c0 0 2.6 26.8-25 33 0 0-37.3 6.2-34-39z"/>
			<path id="Forma 36" class="s127" d="m444 359l-16-2-1 16-11 7-2 1-11-8 3-3c0 0-3-3.1-4-12l18-13 23 4z"/>
			<path id="Forma 35" class="s127" d="m378 445c0 0 5-4.3 7-7 2-2.7-6.8-3-8-8-1.2-5 0.3 6.1 10-50l28 12v78l-5 1-4 1z"/>
			<path id="Forma 34" fill-rule="evenodd" class="s127" d="m287.7 480.2c-2.5 3.6-4.8 7.1-7.5 10.5-8.3 10.9-7.3 24-10 37-0.8 3.8-1.2 8.2-0.5 12.1 0 0.2 0 1 0.4 1 4 0.8 8.8 0.7 12.9 0.7 0.2 0 0.7 0.1 0.8 0 1.7-2.6-0.3-10 0.3-13.3 1-6.1 1.6-13.7 3.5-19.6 1.6-4.8 5.1-8.8 6.1-13.8 0.6-3.7 1.4-7.9 0.5-11.6-0.2-0.9-5.8-4-6.5-3z"/>
		</g>
		<g id="Paloma Forma">
			<path id="Forma 32" class="s128" d="m382 361l25-7c0 0 20.8-14.8 31-8l-13-7c0 0-37.5 13.1-43 22z"/>
			<path id="Forma 31" class="s128" d="m407 487c0 0-20.6-9.7-29-17 0 0-25.9-21.7-28-25 0 0 8.9-7.7 12-11 0 0 29.3 32.3 52 41 0 0-6.9 9.7-7 12z"/>
			<path id="Forma 30" class="s129" d="m379 525v18"/>
			<path id="Forma 29" class="s130" d="m296 493c0 0-12 13.7-12 49 0 0 3.3-12 32 2"/>
			<path id="Forma 27" class="s61" d="m268 543c0 0-14.6-68.8 75-100 0 0 22.3-4.7 27-30l8-44c0 0 8.5-21.8 23-29 0 0 25.1-14.5 45 12 0 0 4.7 20.7-26 27l-2 92c0 0-17.4 65.3-85 72 0 0-60 4.9-65 0z"/>
			<path id="Forma 41" class="s94" d="m299 491c0 0 6.7 7.7 7-6 0 0 2.7-20.2 18-25 0 0 16.3-8.5 30 3 0 0 9 4.7 15 19 0 0 1.9-8.3 1-13 0 0-5.4-23.4-39-21 0 0-35.2 2-32 43z"/>
			<path id="Forma 39" class="s131" d="m338.5 513c-16.3 0-29.5-13.2-29.5-29.5 0-16.3 13.2-29.5 29.5-29.5 16.3 0 29.5 13.2 29.5 29.5 0 16.3-13.2 29.5-29.5 29.5z"/>
			<path id="Forma 38" class="s132" d="m338.5 501c-9.7 0-17.5-7.8-17.5-17.5 0-9.7 7.8-17.5 17.5-17.5 9.7 0 17.5 7.8 17.5 17.5 0 9.7-7.8 17.5-17.5 17.5z"/>
			<path id="Forma 28" class="s61" d="m338 529c-23.8 0-43-19.2-43-43 0-23.8 19.2-43 43-43 23.8 0 43 19.2 43 43 0 23.8-19.2 43-43 43z"/>
			<path id="Forma 45" class="s133" d="m416.5 362c-5.8 0-10.5-4.7-10.5-10.5 0-5.8 4.7-10.5 10.5-10.5 5.8 0 10.5 4.7 10.5 10.5 0 5.8-4.7 10.5-10.5 10.5z"/>
			<path id="Forma 46" class="s94" d="m406 350c-0.3 0.2 0-8.4 10-9 0 0 11.1-0.2 10.8 7.4l0.1 2.9c0.4-0.2-2.7-3.4-4.9-4.3-0.9-0.4-8.8-1.7-16 3z"/>
		</g>
	</g>
	<path id="Forma 190" class="s68" d="m533 585v151h-373v-151z"/>
	<path id="INTI" class="s44" aria-label="INTI"  d="m219.8 588h-54.9v149h54.9zm8.7 0v149h54.9v-84.7l10 84.7h65v-149h-55v85.1l-10-85.1zm214.4 54.5h23.7v-54.5h-102v54.5h23.2v94.5h55.1zm85.5-54.5h-54.9v148.9h54.9z"/>
</svg>