<svg style="display: none;" xmlns="http://www.w3.org/2000/svg" xmlns:xlink="http://www.w3.org/1999/xlink">

<!-- Botones -->
  <symbol id="menu" viewBox="0 -960 960 960">
    <path d="M120-240v-80h720v80H120Zm0-200v-80h720v80H120Zm0-200v-80h720v80H120Z"/>
  </symbol>

  <symbol id="search" viewBox="0 -960 960 960">
    <path d="M784-120 532-372q-30 24-69 38t-83 14q-109 0-184.5-75.5T120-580q0-109 75.5-184.5T380-840q109 0 184.5 75.5T640-580q0 44-14 83t-38 69l252 252-56 56ZM380-400q75 0 127.5-52.5T560-580q0-75-52.5-127.5T380-760q-75 0-127.5 52.5T200-580q0 75 52.5 127.5T380-400Z"/>
  </symbol>

  <symbol id="add" viewBox="0 -960 960 960">
    <path d="M440-440H200v-80h240v-240h80v240h240v80H520v240h-80v-240Z"/>
  </symbol>

  <symbol id="remove" viewBox="0 -960 960 960">
    <path d="M200-440v-80h560v80H200Z"/>
  </symbol>

  <symbol id="close" viewBox="0 -960 960 960">
    <path d="m256-200-56-56 224-224-224-224 56-56 224 224 224-224 56 56-224 224 224 224-56 56-224-224-224 224Z"/>
  </symbol>

  <symbol id="shoppingCart" viewBox="0 -960 960 960">
    <path d="M280-80q-33 0-56.5-23.5T200-160q0-33 23.5-56.5T280-240q33 0 56.5 23.5T360-160q0 33-23.5 56.5T280-80Zm400 0q-33 0-56.5-23.5T600-160q0-33 23.5-56.5T680-240q33 0 56.5 23.5T760-160q0 33-23.5 56.5T680-80ZM246-720l96 200h280l110-200H246Zm-38-80h590q23 0 35 20.5t1 41.5L692-482q-11 20-29.5 31T622-440H324l-44 80h480v80H280q-45 0-68-39.5t-2-78.5l54-98-144-304H40v-80h130l38 80Zm134 280h280-280Z"/>
  </symbol>

<!-- Utils -->
  <symbol id="copyright" viewBox="0 -960 960 960">
    <path d="M408-312h144q20.4 0 34.2-13.8Q600-339.6 600-360v-72h-72v48h-96v-192h96v48h72v-72q0-20.4-13.8-34.2Q572.4-648 552-648H408q-20.4 0-34.2 13.8Q360-620.4 360-600v240q0 20.4 13.8 34.2Q387.6-312 408-312Zm72.28 216Q401-96 331-126t-122.5-82.5Q156-261 126-330.96t-30-149.5Q96-560 126-629.5q30-69.5 82.5-122T330.96-834q69.96-30 149.5-30t149.04 30q69.5 30 122 82.5T834-629.28q30 69.73 30 149Q864-401 834-331t-82.5 122.5Q699-156 629.28-126q-69.73 30-149 30Zm-.28-72q130 0 221-91t91-221q0-130-91-221t-221-91q-130 0-221 91t-91 221q0 130 91 221t221 91Zm0-312Z"/>
  </symbol>

  <symbol id="star" viewBox="0 0 64 64">
    <path d="M62.799,23.737c-0.47-1.399-1.681-2.419-3.139-2.642l-16.969-2.593L35.069,2.265
	C34.419,0.881,33.03,0,31.504,0c-1.527,0-2.915,0.881-3.565,2.265l-7.623,16.238L3.347,21.096c-1.458,0.223-2.669,1.242-3.138,2.642
	c-0.469,1.4-0.115,2.942,0.916,4l12.392,12.707l-2.935,17.977c-0.242,1.488,0.389,2.984,1.62,3.854
	c1.23,0.87,2.854,0.958,4.177,0.228l15.126-8.365l15.126,8.365c0.597,0.33,1.254,0.492,1.908,0.492c0.796,0,1.592-0.242,2.269-0.72
	c1.231-0.869,1.861-2.365,1.619-3.854l-2.935-17.977l12.393-12.707C62.914,26.68,63.268,25.138,62.799,23.737z"/>
  </symbol>

<!-- Redes -->
  <symbol id="github" viewBox="0 0 1024 1024">
    <path fill-rule="evenodd" clip-rule="evenodd" d="M8 0C3.58 0 0 3.58 0 8C0 11.54 2.29 14.53 5.47 15.59C5.87 15.66 6.02 15.42 6.02 15.21C6.02 15.02 6.01 14.39 6.01 13.72C4 14.09 3.48 13.23 3.32 12.78C3.23 12.55 2.84 11.84 2.5 11.65C2.22 11.5 1.82 11.13 2.49 11.12C3.12 11.11 3.57 11.7 3.72 11.94C4.44 13.15 5.59 12.81 6.05 12.6C6.12 12.08 6.33 11.73 6.56 11.53C4.78 11.33 2.92 10.64 2.92 7.58C2.92 6.71 3.23 5.99 3.74 5.43C3.66 5.23 3.38 4.41 3.82 3.31C3.82 3.31 4.49 3.1 6.02 4.13C6.66 3.95 7.34 3.86 8.02 3.86C8.7 3.86 9.38 3.95 10.02 4.13C11.55 3.09 12.22 3.31 12.22 3.31C12.66 4.41 12.38 5.23 12.3 5.43C12.81 5.99 13.12 6.7 13.12 7.58C13.12 10.65 11.25 11.33 9.47 11.53C9.76 11.78 10.01 12.26 10.01 13.01C10.01 14.08 10 14.94 10 15.21C10 15.42 10.15 15.67 10.55 15.59C13.71 14.53 16 11.53 16 8C16 3.58 12.42 0 8 0Z" transform="scale(64)"/>
  </symbol>

  <symbol id="facebook" viewBox="0 0 50 50">
    <path d="M25,3C12.85,3,3,12.85,3,25c0,11.03,8.125,20.137,18.712,21.728V30.831h-5.443v-5.783h5.443v-3.848 c0-6.371,3.104-9.168,8.399-9.168c2.536,0,3.877,0.188,4.512,0.274v5.048h-3.612c-2.248,0-3.033,2.131-3.033,4.533v3.161h6.588 l-0.894,5.783h-5.694v15.944C38.716,45.318,47,36.137,47,25C47,12.85,37.15,3,25,3z"/>
  </symbol>

  <symbol id="whatsapp" viewBox="0 0 50 50">
    <path d="M25,2C12.318,2,2,12.318,2,25c0,3.96,1.023,7.854,2.963,11.29L2.037,46.73c-0.096,0.343-0.003,0.711,0.245,0.966 C2.473,47.893,2.733,48,3,48c0.08,0,0.161-0.01,0.24-0.029l10.896-2.699C17.463,47.058,21.21,48,25,48c12.682,0,23-10.318,23-23 S37.682,2,25,2z M36.57,33.116c-0.492,1.362-2.852,2.605-3.986,2.772c-1.018,0.149-2.306,0.213-3.72-0.231 c-0.857-0.27-1.957-0.628-3.366-1.229c-5.923-2.526-9.791-8.415-10.087-8.804C15.116,25.235,13,22.463,13,19.594 s1.525-4.28,2.067-4.864c0.542-0.584,1.181-0.73,1.575-0.73s0.787,0.005,1.132,0.021c0.363,0.018,0.85-0.137,1.329,1.001 c0.492,1.168,1.673,4.037,1.819,4.33c0.148,0.292,0.246,0.633,0.05,1.022c-0.196,0.389-0.294,0.632-0.59,0.973 s-0.62,0.76-0.886,1.022c-0.296,0.291-0.603,0.606-0.259,1.19c0.344,0.584,1.529,2.493,3.285,4.039 c2.255,1.986,4.158,2.602,4.748,2.894c0.59,0.292,0.935,0.243,1.279-0.146c0.344-0.39,1.476-1.703,1.869-2.286 s0.787-0.487,1.329-0.292c0.542,0.194,3.445,1.604,4.035,1.896c0.59,0.292,0.984,0.438,1.132,0.681 C37.062,30.587,37.062,31.755,36.57,33.116z"/>
  </symbol>

  <symbol id="linkedin" viewBox="0 0 20 20"><g id="SVGRepo_bgCarrier" stroke-width="0"></g><g id="SVGRepo_tracerCarrier" stroke-linecap="round" stroke-linejoin="round"></g><g id="SVGRepo_iconCarrier"><path d="M10 .4C4.698.4.4 4.698.4 10s4.298 9.6 9.6 9.6 9.6-4.298 9.6-9.6S15.302.4 10 .4zM7.65 13.979H5.706V7.723H7.65v6.256zm-.984-7.024c-.614 0-1.011-.435-1.011-.973 0-.549.409-.971 1.036-.971s1.011.422 1.023.971c0 .538-.396.973-1.048.973zm8.084 7.024h-1.944v-3.467c0-.807-.282-1.355-.985-1.355-.537 0-.856.371-.997.728-.052.127-.065.307-.065.486v3.607H8.814v-4.26c0-.781-.025-1.434-.051-1.996h1.689l.089.869h.039c.256-.408.883-1.01 1.932-1.01 1.279 0 2.238.857 2.238 2.699v3.699z"></path></g></symbol>

</svg>