<svg version="1.2" xmlns="http://www.w3.org/2000/svg" viewBox="0 0 677 766" width="677" height="766">
	<title>web Icon</title>
	<style>
		.s0 { fill: #df0064 } 
		.s1 { fill: #f7f7f7 } 
		.s2 { fill: #f9ae03 } 
		.s3 { fill: #e7edeb } 
		.s4 { fill: none;stroke: #7e1d90;stroke-miterlimit:100;stroke-width: 12 } 
		.s5 { fill: #c5bfb3 } 
		.s6 { fill: #bbb7ac } 
		.s7 { fill: #00dbda } 
		.s8 { fill: #c2b8ac } 
		.s9 { fill: none;stroke: #000000;stroke-linecap: round;stroke-miterlimit:100;stroke-width: 12 } 
		.s10 { fill: none;stroke: #000000;stroke-linecap: round;stroke-miterlimit:100;stroke-width: 14 } 
		.s11 { fill: none;stroke: #000000;stroke-miterlimit:100;stroke-width: 13 } 
		.s12 { fill: none;stroke: #000000;stroke-linecap: round;stroke-miterlimit:100;stroke-width: 13 } 
		.s13 { fill: #000000 } 
		.s14 { fill: none;stroke: #000000;stroke-miterlimit:100;stroke-width: 15 } 
	</style>
	<path id="Shape 1" fill-rule="evenodd" class="s0" d="m338 707c-172.5 0-312-145.1-312-324.5 0-179.4 139.5-324.5 312-324.5 172.5 0 312 145.1 312 324.5 0 179.4-139.5 324.5-312 324.5z"/>
	<g id="Llama">
		<g id="Llama Color">
			<path id="Fondo" class="s1" d="m210.2 31l-65.4 26.8-14.9 47.6-11.9 50.6 17.8 38.7 9 44.6 11.9 26.8 11.9 23.8-65.5 47.6-17.8 124.9 35.7 71.4 11.9 20.9 2.9 122 47.6 53.5 50.6 6 101.2 8.9 89.2-8.9 68.5-20.9 38.7-32.7 8.9-41.7-6-312.4 35.7-71.4 20.9-83.3-6-65.4-26.8-50.6-32.7-29.8-32.7-11.9-38.7 17.9-14.9 74.4-26.8 98.2h-121.9l-20.9-62.5-35.7-104.2z"/>
			<path id="cuello " class="s2" d="m136.1 678.6l392.7-0.8c-0.5 1-215.3 162.5-392.7 0.8z"/>
			<path id="Relleno de color sólido 17" class="s3" d="m509.8 339.5c0 0 89.3-158.2-11.3-295.7 0 0-21.7 194.3-50.3 198.5 0 0-52.7-23.7-193.1-10.1l-143.1 102.3-20.8 95.2 1.4 52 40.3 52.1 5.9 20.3 2.4 76.4 0.4 10.5h367.2z"/>
			<path id="Forma 100" class="s4" d="m135.8 640.9l400.8 1.2"/>
			<path id="Relleno de color sólido 10" class="s5" d="m213.2 28c0 0-9.2 63.7 50.6 181.5l-92.3 68.5c0 0-129.7-209.2 41.7-250z"/>
			<path id="Relleno de color sólido 9" class="s6" d="m368.4 513.2c0 0 3.4 56.9-63 86.1 0 0-151.3 8.1-163.2-7.1l-0.1-37.2c0 0 155.8 28.4 226.3-41.8z"/>
			<path id="Relleno de color sólido 8" class="s7" d="m302.9 359.1c0 0 9.7 54.2-2.8 70.9 0 0-87.8 66.6-107.7 17.6 0 0-38.1 42-98.2-1.2l3.1-67.3c0 0 81.7 11.9 89.1 35.7 0 0 28.5-39 54.9-35.8 26.3 3.2 45.8-22.2 61.6-19.9z"/>
			<path id="Relleno de color sólido 7" class="s8" d="m297.1 336.3c0 0-65.5-20.9-107.7 10.1 0 0-5.1-1.8-6-11.9 0 0-25.2-17.6-47.6-6l-20.8 17.9-3 23.8c0 0 47.2 5.7 75.8 40.2 0 0 40.7-43.6 106.5-47.8z"/>
		</g>
		<g id="Llama Forma">
			<path id="Forma 26" class="s9" d="m136.9 548.8c0 0 205 52.5 238.6-65.3"/>
			<path id="Forma 25" class="s10" d="m379.8 465.4c0 0-23.5 135.1-241.3 77.7"/>
			<path id="Forma 24" class="s11" d="m287.6 203.6c0 0-30.1-127.1-47.6-151.8 0 0-17.6-61.3-80.4-2.9 0 0-91.6 67.2 9 232 0 0 107.1-73.2 119-77.3z"/>
			<path id="Forma 23" class="s11" d="m516.7 194.7c0 0-8.9 53.5-38.7 80.3"/>
			<path id="Forma 22" class="s12" d="m522.6 120.3c0 0-3.2 96.1-14.8 107.1"/>
			<path id="Forma 21" class="s12" d="m183.4 135.1c0 0 21.2 108.6 38.7 104.2"/>
			<path id="Forma 20" class="s12" d="m296.5 343.4c0 0 11 28.6-17.8 26.8 0 0-100.6 19.3-89.3 59.5 0 0 11 92.2 104.1 3"/>
			<path id="Forma 19" class="s11" d="m97.2 376.1c0 0 107.1 3 86.2 71.5 0 0-22.6 55.6-89.2-3 0 0-12.8-37.5 3-68.5z"/>
			<path id="Forma 18" fill-rule="evenodd" class="s13" d="m412.5 373.2c-23 0-41.6-18.7-41.6-41.7 0-23 18.6-41.6 41.6-41.6 23.1 0 41.7 18.6 41.7 41.6 0 23-18.6 41.7-41.7 41.7z"/>
			<path id="Forma 17" fill-rule="evenodd" class="s14" d="m136.6 679.4c45.2 102.5 400.6 70.5 401.5-23.5 0.7-65.6 8-156.1-3.6-324.4 0 0 151.2-236.2-35.7-315.4 0 0-44.9 8.7-47.6 29.8 0 0-35.7 158-35.7 160.7 0 2.6-127.3-4.8-136.8 0 0 0-175 121.3-175.6 133.8 0 0-30.3 127.7-11.9 145.8 0 0 38.4 58.3 44.6 59.5z"/>
		</g>
	</g>
</svg>